# xmcd
#
# Track frame offsets: 
#        150
#        11404
#        35767
#        53931
#        70692
#        101759
#        116915
#        134615
#        159037
#
# Disc length: 2577 seconds
#
# Revision: 0
# Processed by: cddbd v1.5.2PL0 Copyright (c) Steve Scherf et al.
# Submitted via: ExactAudioCopy v0.99pb3
#
DISCID=770a0f09
DTITLE=Hosea Hargrove and Enter City Band - Party's On Me
DYEAR=1998
DGENRE=Blues
TTITLE0=Pain Avenue
TTITLE1=Hoochie Coochie Man
TTITLE2=Gee Hosea
TTITLE3=Gambling Woman Blues
TTITLE4=Rock Me Baby
TTITLE5=Woke Up This Morning
TTITLE6=Hawaii
TTITLE7=Love My Life
TTITLE8=Boogaloo
EXTD=
EXTT0=
EXTT1=
EXTT2=
EXTT3=
EXTT4=
EXTT5=
EXTT6=
EXTT7=
EXTT8=
PLAYORDER=
